HIERARCHY
ROOT Hips
{
	OFFSET 0.000000 0.000000 0.000000 
	CHANNELS 6 Xposition Yposition Zposition Zrotation Xrotation Yrotation
	JOINT Spine
	{
		OFFSET -0.000000 8.285670 0.000000 
		CHANNELS 3 Zrotation Xrotation Yrotation
		JOINT Spine1
		{
			OFFSET -0.000000 20.280901 0.000000 
			CHANNELS 3 Zrotation Xrotation Yrotation
			JOINT Neck
			{
				OFFSET -0.000000 22.301800 0.000000 
				CHANNELS 3 Zrotation Xrotation Yrotation
				JOINT Head
				{
					OFFSET -0.000000 15.661900 2.020890 
					CHANNELS 3 Zrotation Xrotation Yrotation
					End Site
					{
						OFFSET -0.000000 20.208887 0.000000 
					}
				}
			}
			JOINT LeftShoulder
			{
				OFFSET 3.887530 15.503099 -0.416373 
				CHANNELS 3 Zrotation Xrotation Yrotation
				JOINT LeftArm
				{
					OFFSET 20.767099 0.000000 0.000000 
					CHANNELS 3 Zrotation Xrotation Yrotation
					JOINT LeftForeArm
					{
						OFFSET 26.608500 0.000000 0.000000 
						CHANNELS 3 Zrotation Xrotation Yrotation
						JOINT LeftHand
						{
							OFFSET 25.563202 0.000000 0.000000 
							CHANNELS 3 Zrotation Xrotation Yrotation
							End Site
							{
								OFFSET 15.156667 0.000000 0.000000 
							}
						}
					}
				}
			}
			JOINT RightShoulder
			{
				OFFSET -4.190880 15.503099 -0.416373 
				CHANNELS 3 Zrotation Xrotation Yrotation
				JOINT RightArm
				{
					OFFSET -20.767099 0.000000 0.000000 
					CHANNELS 3 Zrotation Xrotation Yrotation
					JOINT RightForeArm
					{
						OFFSET -26.608500 0.000000 0.000000 
						CHANNELS 3 Zrotation Xrotation Yrotation
						JOINT RightHand
						{
							OFFSET -25.563202 0.000000 0.000000 
							CHANNELS 3 Zrotation Xrotation Yrotation
							End Site
							{
								OFFSET -15.156667 0.000000 0.000000 
							}
						}
					}
				}
			}
		}
	}
	JOINT LeftUpLeg
	{
		OFFSET 10.104500 0.000000 0.000000 
		CHANNELS 3 Zrotation Xrotation Yrotation
		JOINT LeftLeg
		{
			OFFSET -0.000000 -50.743301 0.000000 
			CHANNELS 3 Zrotation Xrotation Yrotation
			JOINT LeftFoot
			{
				OFFSET -0.000000 -35.579197 0.000000 
				CHANNELS 3 Zrotation Xrotation Yrotation
				JOINT LeftToeBase
				{
					OFFSET -0.000000 -6.567910 15.156700 
					CHANNELS 3 Zrotation Xrotation Yrotation
					End Site
					{
						OFFSET -0.000000 0.000000 4.041778 
					}
				}
			}
		}
	}
	JOINT RightUpLeg
	{
		OFFSET -10.104500 0.000000 0.000000 
		CHANNELS 3 Zrotation Xrotation Yrotation
		JOINT RightLeg
		{
			OFFSET -0.000000 -50.743301 0.000000 
			CHANNELS 3 Zrotation Xrotation Yrotation
			JOINT RightFoot
			{
				OFFSET -0.000000 -35.579197 0.000000 
				CHANNELS 3 Zrotation Xrotation Yrotation
				JOINT RightToeBase
				{
					OFFSET -0.000000 -6.567910 15.156700 
					CHANNELS 3 Zrotation Xrotation Yrotation
					End Site
					{
						OFFSET -0.000000 0.000000 4.041778 
					}
				}
			}
		}
	}
}
MOTION
Frames: 6
Frame Time: 0.010000
0.000000 90.293159 0.000000 0.655979 0.580005 4.836469 1.698104 -1.352047 -1.920631 3.706570 -4.062929 -0.514726 -3.661736 15.273621 6.655655 0.128679 -15.759570 5.900798 -9.888098 7.245646 0.914389 -75.560341 22.454288 -11.669444 -0.583541 20.264462 5.909764 8.598912 19.132227 -16.285944 -12.795952 4.811403 -4.067388 77.887634 -13.681036 1.231363 24.734905 31.806673 26.745489 11.918093 25.741077 -9.028080 2.573943 -2.009212 -8.529577 -1.201744 19.820486 -17.733793 14.128309 -27.220034 41.735729 0.000000 0.000000 0.000000 -9.256437 3.417994 -16.806290 6.603569 8.659757 2.914094 -2.050777 -22.173828 -3.986029 0.000000 0.000000 0.000000 
0.006269 90.292824 -0.002780 0.653564 0.585177 4.828299 1.700269 -1.351839 -1.915575 3.708596 -4.065151 -0.512855 -3.652376 15.276403 6.658363 0.119912 -15.768527 5.905932 -9.887968 7.245062 0.915504 -75.563606 22.462137 -11.672126 -0.578237 20.259771 5.905779 8.577756 19.131924 -16.260641 -12.796783 4.810265 -4.065153 78.147301 -12.805802 1.599280 24.122829 31.265148 26.730989 11.810782 25.352339 -8.644814 2.572849 -2.019255 -8.532649 -1.217238 19.834173 -17.726076 14.196145 -27.166088 41.770927 0.000000 0.000000 0.000000 -9.258577 3.412503 -16.805429 6.603859 8.650817 2.911353 -2.042087 -22.164869 -3.977842 0.000000 0.000000 0.000000 
0.012586 90.292488 -0.005516 0.651255 0.590214 4.819962 1.702372 -1.351585 -1.910390 3.710570 -4.067283 -0.511068 -3.643164 15.279021 6.661123 0.111406 -15.777225 5.911086 -9.887753 7.244503 0.916632 -75.566811 22.469927 -11.674851 -0.573133 20.255083 5.901761 8.556725 19.131639 -16.235344 -12.797754 4.809001 -4.062780 78.399025 -11.923230 1.965683 23.518196 30.717833 26.696222 11.705834 24.961004 -8.257427 2.571610 -2.029058 -8.535705 -1.232615 19.847803 -17.718296 14.263872 -27.112278 41.805885 0.000000 0.000000 0.000000 -9.260839 3.407199 -16.804565 6.604130 8.641818 2.908520 -2.033318 -22.155924 -3.969430 0.000000 0.000000 0.000000 
0.018934 90.292145 -0.008314 0.648746 0.595532 4.811594 1.704552 -1.351690 -1.905264 3.712637 -4.069294 -0.509184 -3.633800 15.281780 6.663800 0.102696 -15.786097 5.916194 -9.887586 7.243993 0.917583 -75.570045 22.477709 -11.677599 -0.567822 20.250393 5.897884 8.535669 19.131279 -16.210272 -12.798679 4.807747 -4.060378 78.642334 -11.034204 2.330569 22.921581 30.165564 26.641226 11.603292 24.567436 -7.866228 2.570589 -2.039344 -8.538735 -1.248164 19.861666 -17.710705 14.331529 -27.058554 41.840820 0.000000 0.000000 0.000000 -9.262917 3.401561 -16.803755 6.604350 8.632730 2.905582 -2.024389 -22.146805 -3.960929 0.000000 0.000000 0.000000 
0.025389 90.291801 -0.011131 0.646249 0.600859 4.803289 1.706865 -1.351559 -1.900087 3.714537 -4.071610 -0.507371 -3.624436 15.284313 6.666511 0.094028 -15.794564 5.921353 -9.887500 7.243587 0.918782 -75.573151 22.485460 -11.680470 -0.562678 20.245770 5.894147 8.514801 19.130985 -16.185326 -12.799438 4.806468 -4.057974 78.876625 -10.140784 2.693458 22.334545 29.609886 26.565800 11.503452 24.172661 -7.472149 2.569529 -2.049621 -8.541985 -1.263865 19.875481 -17.702881 14.398921 -27.005232 41.875496 0.000000 0.000000 0.000000 -9.265079 3.395973 -16.802967 6.604637 8.623438 2.902734 -2.015486 -22.137543 -3.952398 0.000000 0.000000 0.000000 
0.031969 90.291466 -0.013968 0.643717 0.606246 4.794814 1.709206 -1.351473 -1.894895 3.716467 -4.073792 -0.505479 -3.615164 15.286585 6.669235 0.085397 -15.802881 5.926486 -9.887270 7.242898 0.919866 -75.576393 22.493076 -11.683092 -0.557632 20.241232 5.890440 8.494080 19.130705 -16.160629 -12.800448 4.805135 -4.055532 79.101891 -9.244613 3.054287 21.758047 29.051905 26.469740 11.406212 23.777306 -7.075423 2.568444 -2.060071 -8.545108 -1.279554 19.889511 -17.695213 14.465919 -26.952429 41.909916 0.000000 0.000000 0.000000 -9.267289 3.390377 -16.802179 6.604964 8.613846 2.899817 -2.006415 -22.127964 -3.943732 0.000000 0.000000 0.000000 
